<svg xmlns="http://www.w3.org/2000/svg" xmlns:xlink="http://www.w3.org/1999/xlink" contentStyleType="text/css" data-diagram-type="DESCRIPTION" height="276px" preserveAspectRatio="none" style="width:611px;height:276px;background:#FFFFFF;" version="1.1" viewBox="-28 -28 611 276" width="611px" zoomAndPan="magnify"><?plantuml 1.2026.3?><defs/><g><!--entity User--><g class="entity" data-qualified-name="User" data-source-line="5" id="ent0002"><ellipse cx="31.8159" cy="86" fill="#F1F1F1" rx="8" ry="8" style="stroke:#181818;stroke-width:0.5;"/><path d="M31.8159,94 L31.8159,121 M18.8159,102 L44.8159,102 M31.8159,121 L18.8159,136 M31.8159,121 L44.8159,136" fill="none" style="stroke:#181818;stroke-width:0.5;"/><text fill="#000000" font-family="sans-serif" font-size="14" lengthAdjust="spacing" textLength="51.6318" x="6" y="151.0352">Usuario</text></g><!--entity Frontend--><g class="entity" data-qualified-name="Frontend" data-source-line="6" id="ent0003"><rect fill="#F1F1F1" height="46.4883" rx="2.5" ry="2.5" style="stroke:#181818;stroke-width:0.5;" width="68.5879" x="128" y="92.5"/><rect fill="#F1F1F1" height="10" style="stroke:#181818;stroke-width:0.5;" width="15" x="176.5879" y="97.5"/><rect fill="#F1F1F1" height="2" style="stroke:#181818;stroke-width:0.5;" width="4" x="174.5879" y="99.5"/><rect fill="#F1F1F1" height="2" style="stroke:#181818;stroke-width:0.5;" width="4" x="174.5879" y="103.5"/><text fill="#000000" font-family="sans-serif" font-size="14" lengthAdjust="spacing" textLength="28.5879" x="143" y="126.0352">Web</text></g><!--entity Backend--><g class="entity" data-qualified-name="Backend" data-source-line="7" id="ent0004"><rect fill="#F1F1F1" height="46.4883" rx="2.5" ry="2.5" style="stroke:#181818;stroke-width:0.5;" width="122.2979" x="267" y="92.5"/><rect fill="#F1F1F1" height="10" style="stroke:#181818;stroke-width:0.5;" width="15" x="369.2979" y="97.5"/><rect fill="#F1F1F1" height="2" style="stroke:#181818;stroke-width:0.5;" width="4" x="367.2979" y="99.5"/><rect fill="#F1F1F1" height="2" style="stroke:#181818;stroke-width:0.5;" width="4" x="367.2979" y="103.5"/><text fill="#000000" font-family="sans-serif" font-size="14" lengthAdjust="spacing" textLength="82.2979" x="282" y="126.0352">Backend API</text></g><!--entity Gemini--><g class="entity" data-qualified-name="Gemini" data-source-line="8" id="ent0005"><rect fill="#F1F1F1" height="62.9766" rx="2.5" ry="2.5" style="stroke:#181818;stroke-width:0.5;" width="113.6299" x="425" y="12"/><rect fill="#F1F1F1" height="10" style="stroke:#181818;stroke-width:0.5;" width="15" x="518.6299" y="17"/><rect fill="#F1F1F1" height="2" style="stroke:#181818;stroke-width:0.5;" width="4" x="516.6299" y="19"/><rect fill="#F1F1F1" height="2" style="stroke:#181818;stroke-width:0.5;" width="4" x="516.6299" y="23"/><text fill="#000000" font-family="sans-serif" font-size="14" font-style="italic" lengthAdjust="spacing" textLength="67.1084" x="443.2607" y="45.5352">&#171;externo&#187;</text><text fill="#000000" font-family="sans-serif" font-size="14" lengthAdjust="spacing" textLength="73.6299" x="440" y="62.0234">Gemini API</text></g><!--entity Database--><g class="entity" data-qualified-name="Database" data-source-line="9" id="ent0006"><path d="M433.5,103 C433.5,93 481.9248,93 481.9248,93 C481.9248,93 530.3496,93 530.3496,103 L530.3496,128.4883 C530.3496,138.4883 481.9248,138.4883 481.9248,138.4883 C481.9248,138.4883 433.5,138.4883 433.5,128.4883 L433.5,103" fill="#F1F1F1" style="stroke:#181818;stroke-width:0.5;"/><path d="M433.5,103 C433.5,113 481.9248,113 481.9248,113 C481.9248,113 530.3496,113 530.3496,103" fill="none" style="stroke:#181818;stroke-width:0.5;"/><text fill="#000000" font-family="sans-serif" font-size="14" lengthAdjust="spacing" textLength="76.8496" x="443.5" y="130.5352">PostgreSQL</text></g><!--entity LangSmith--><g class="entity" data-qualified-name="LangSmith" data-source-line="10" id="ent0007"><rect fill="#F1F1F1" height="62.9766" rx="2.5" ry="2.5" style="stroke:#181818;stroke-width:0.5;" width="111.1963" x="426.5" y="156"/><rect fill="#F1F1F1" height="10" style="stroke:#181818;stroke-width:0.5;" width="15" x="517.6963" y="161"/><rect fill="#F1F1F1" height="2" style="stroke:#181818;stroke-width:0.5;" width="4" x="515.6963" y="163"/><rect fill="#F1F1F1" height="2" style="stroke:#181818;stroke-width:0.5;" width="4" x="515.6963" y="167"/><text fill="#000000" font-family="sans-serif" font-size="14" font-style="italic" lengthAdjust="spacing" textLength="67.1084" x="443.5439" y="189.5352">&#171;externo&#187;</text><text fill="#000000" font-family="sans-serif" font-size="14" lengthAdjust="spacing" textLength="71.1963" x="441.5" y="206.0234">LangSmith</text></g><!--entity Grafana--><g class="entity" data-qualified-name="Grafana" data-source-line="11" id="ent0008"><rect fill="#F1F1F1" height="62.9766" rx="2.5" ry="2.5" style="stroke:#181818;stroke-width:0.5;" width="137.1387" x="94" y="157"/><rect fill="#F1F1F1" height="10" style="stroke:#181818;stroke-width:0.5;" width="15" x="211.1387" y="162"/><rect fill="#F1F1F1" height="2" style="stroke:#181818;stroke-width:0.5;" width="4" x="209.1387" y="164"/><rect fill="#F1F1F1" height="2" style="stroke:#181818;stroke-width:0.5;" width="4" x="209.1387" y="168"/><text fill="#000000" font-family="sans-serif" font-size="14" font-style="italic" lengthAdjust="spacing" textLength="67.1084" x="124.0151" y="190.5352">&#171;externo&#187;</text><text fill="#000000" font-family="sans-serif" font-size="14" lengthAdjust="spacing" textLength="97.1387" x="109" y="207.0234">Grafana Cloud</text></g><g class="link" data-entity-1="ent0002" data-entity-2="ent0003" data-link-type="dependency" id="lnk9"><polygon fill="#181818" points="127.7276,115.5,118.7276,111.5,122.7276,115.5,118.7276,119.5,127.7276,115.5" style="stroke:#181818;stroke-width:1;"/><path d="M58.0811,115.5 C77.9477,115.5 99.8936,115.5 121.7276,115.5" fill="none" style="stroke:#181818;stroke-width:1;"/></g><g class="link" data-entity-1="ent0003" data-entity-2="ent0004" data-link-type="dependency" id="lnk10"><polygon fill="#181818" points="266.7246,122.0386,257.646,118.2204,261.7256,122.1391,257.8068,126.2188,266.7246,122.0386" style="stroke:#181818;stroke-width:1;"/><path d="M197.3773,121.0927 C217.3939,122.194 237.3239,122.6299 260.7258,122.1593" fill="none" style="stroke:#181818;stroke-width:1;"/></g><g class="link" data-entity-1="ent0004" data-entity-2="ent0003" data-link-type="dependency" id="lnk11"><polygon fill="#181818" points="197.3773,109.9073,206.5835,113.4068,202.3698,109.6326,206.144,105.4189,197.3773,109.9073" style="stroke:#181818;stroke-width:1;"/><path d="M266.7246,108.9614 C243.3227,108.4907 223.3848,108.4764 203.3682,109.5777" fill="none" style="stroke:#181818;stroke-width:1;"/></g><g class="link" data-entity-1="ent0004" data-entity-2="ent0005" data-link-type="dependency" id="lnk12"><polygon fill="#181818" points="427.7644,75.1902,417.9252,75.6271,423.2899,77.4216,421.4954,82.7862,427.7644,75.1902" style="stroke:#181818;stroke-width:1;"/><path d="M389.0744,93.6602 C401.8536,87.824 409.8924,84.1027 422.395,77.8678" fill="none" style="stroke:#181818;stroke-width:1;"/></g><g class="link" data-entity-1="ent0005" data-entity-2="ent0004" data-link-type="dependency" id="lnk13"><polygon fill="#181818" points="365.4078,92.395,375.2366,91.7666,369.838,90.077,371.5277,84.6783,365.4078,92.395" style="stroke:#181818;stroke-width:1;"/><path d="M424.9936,63.4914 C405.0991,72.484 388.5531,80.2844 370.724,89.6133" fill="none" style="stroke:#181818;stroke-width:1;"/></g><g class="link" data-entity-1="ent0004" data-entity-2="ent0006" data-link-type="dependency" id="lnk14"><polygon fill="#181818" points="433.0627,121.8232,423.9402,118.1111,428.0653,121.982,424.1944,126.1071,433.0627,121.8232" style="stroke:#181818;stroke-width:1;"/><path d="M389.0744,122.1165 C403.6792,122.3646 413.1085,122.4575 427.0658,122.0138" fill="none" style="stroke:#181818;stroke-width:1;"/></g><g class="link" data-entity-1="ent0006" data-entity-2="ent0004" data-link-type="dependency" id="lnk15"><polygon fill="#181818" points="389.0744,108.8835,398.1411,112.73,394.0737,108.7986,398.0052,104.7312,389.0744,108.8835" style="stroke:#181818;stroke-width:1;"/><path d="M433.0627,109.1768 C419.1055,108.7331 409.6783,108.5334 395.0736,108.7816" fill="none" style="stroke:#181818;stroke-width:1;"/></g><g class="link" data-entity-1="ent0004" data-entity-2="ent0007" data-link-type="dependency" id="lnk16"><polygon fill="#181818" points="426.3627,161.6192,419.9414,154.1515,421.844,159.4788,416.5168,161.3814,426.3627,161.6192" style="stroke:#181818;stroke-width:1;"/><path d="M377.9304,138.6776 C393.3783,145.995 405.1202,151.5569 420.9403,159.0507" fill="none" style="stroke:#181818;stroke-width:1;stroke-dasharray:7,7;"/></g><g class="link" data-entity-1="ent0008" data-entity-2="ent0004" data-link-type="dependency" id="lnk17"><polygon fill="#181818" points="275.2492,138.6059,265.4003,138.6226,270.6836,140.6443,268.6619,145.9276,275.2492,138.6059" style="stroke:#181818;stroke-width:1;"/><path d="M231.4183,158.1756 C246.0704,151.6337 255.8543,147.2653 269.7704,141.052" fill="none" style="stroke:#181818;stroke-width:1;stroke-dasharray:7,7;"/></g><?plantuml-src TP1DRy8m38Rl-HLUxt3O6LNQXpOXSM2gqCwcDIKYYIl7bSQ_7vIa16cxnQyVEtdoD0Zs7i7XcKU5w4ane75qK506iVrHeRD2hLeE9fvi653GGyj-u4116pqxWj6xPsEmLHQeTd54iLm1HjX54ZF3K7tJVie_X8DIwChUAxQdImGls_N4fBf4FidRO6SYbQiL_IX9uBes7IhkCH9KMuxQ2pLVcubzJurotGP3ttYhnucOguU5vUs2Xyltm9lZiRiz82NbWBawms9HtoNpOKgpLjPz8ClmPcUIv7-ZirS-_4akb_NTp-HdNzD4_080?></g></svg>